<svg xmlns="http://www.w3.org/2000/svg" fill="white" fill-rule="evenodd" stroke-linejoin="round" stroke-miterlimit="2" clip-rule="evenodd" viewBox="0 0 2599 944">
  <g fill-rule="nonzero">
    <path d="m2458 245 53-25v212l-3 1-169-130 53-26-17-11c-72-40-149-67-228-89-91-26-184-46-278-60-78-12-156-22-234-30-75-7-150-12-225-17a3802 3802 0 0 0-578 7c-104 8-207 21-309 42-94 18-188 42-276 81-45 20-87 44-123 78-34 32-56 69-55 118 0 21-3 43-4 64v12h165v59H65v391H0v-11l2-504c0-69 25-127 75-174 45-42 97-71 152-96 80-34 163-57 248-74 53-11 107-21 162-29a4691 4691 0 0 1 372-32l229-2a5265 5265 0 0 1 343 17c49 4 99 9 148 16 89 13 179 26 267 42 119 23 236 54 347 104 30 14 59 31 88 47l25 19z"/>
    <path d="M1362 484c51-4 99 1 141 32 33 24 53 57 55 98 2 50 2 101 3 152l3 140 4 25h-54c-2 0-5-6-6-9l-4-53-1-7-13 16c-29 37-68 58-115 64-39 4-76 2-112-15-43-22-69-56-72-105-5-85 44-120 103-139 36-11 73-15 111-17l95-4c0-38-3-74-34-101-31-25-67-25-104-24zm137 230c-45 0-89 0-133 8-27 5-52 12-75 27a73 73 0 0 0-19 106c15 21 38 30 62 33 58 9 112-9 144-61 21-35 24-73 21-113zM494 932h-58l-6-69-12 13c-30 39-68 60-117 66-41 5-82 1-118-20-41-23-64-58-65-106-1-44 11-81 48-106 17-11 36-20 55-26 36-12 73-16 110-18l96-4c0-37-3-72-32-99-29-25-64-28-100-26v-53c65-7 135 13 170 69 15 25 22 52 22 81l2 243 5 55zm-68-218c-45 0-89 0-133 8-27 5-52 12-75 26-47 29-41 95-6 120 21 16 45 21 70 22 59 4 110-29 133-84 12-29 13-60 11-92zM921 926h-65v-12c0-75 1-149-1-224 0-26-2-53-8-79-11-50-48-77-98-80-67-5-117 37-134 99-7 25-10 52-10 78l-1 206v12h-65V488h59l4 72 5-5c26-43 66-67 114-76 35-6 71-4 104 9 55 22 81 66 91 121 2 13 2 27 2 40l2 265 1 12zM1785 882v51h-49V382h49v264l3 1 7-8c29-36 68-54 114-56 42-2 80 9 114 33 36 26 57 63 65 107 9 46 4 92-20 134-29 49-71 76-128 83-46 5-88-5-125-34l-30-24zm-5-120c0 84 65 142 141 136 40-3 72-19 95-54 21-32 26-68 21-106-9-78-81-128-157-110-61 15-100 68-100 134zM1089 920h-66V529h-99v-59h100v-89h64v89h218v58h-217zM2415 582c54 0 101 17 138 58 29 31 43 69 45 112 2 48-10 92-43 129-30 36-70 54-117 59-38 3-74 0-107-18-61-31-93-82-96-151-2-45 9-86 36-122 28-36 65-56 109-64l35-3zm1 316c38 0 72-13 96-43 34-41 41-88 27-138-14-47-46-79-95-89-49-11-92 2-125 41-27 33-35 72-30 114 8 68 59 115 127 115zM2135 598h49v341h-49zM2155 373c46 0 82 37 82 83 0 44-38 81-83 81s-82-37-81-83c0-45 37-82 82-81zm37 82c0-21-16-37-36-37-21-1-38 15-38 36s16 38 37 38c20 0 37-16 37-37zM1694 891c2 20-15 40-40 40-22 0-38-17-38-40-1-23 16-39 39-39 21-1 41 19 39 39z"/>
  </g>
</svg>
